<svg xmlns="http://www.w3.org/2000/svg" width="191.367" height="191.367" viewBox="0 0 191.367 191.367">
  <g id="Grupo_994" data-name="Grupo 994" transform="translate(-435.633 -179.7)">
    <path id="Caminho_4863" data-name="Caminho 4863" d="M95.684,0A95.684,95.684,0,1,1,0,95.684,95.684,95.684,0,0,1,95.684,0Z" transform="translate(435.633 179.7)" fill="#f1f5f8"/>
    <path id="Caminho_4861" data-name="Caminho 4861" d="M86.8,0A86.8,86.8,0,1,1,0,86.8,86.8,86.8,0,0,1,86.8,0Z" transform="translate(445.2 186.2)" fill="#dce8f0"/>
    <g id="undraw_filing_system_re_56h6" transform="translate(458.763 186.2)">
      <path id="Caminho_4826" data-name="Caminho 4826" d="M774.422,261.677a2.97,2.97,0,0,0,4.333,1.4l8.233,6.6.51-5.461-7.9-5.434a2.986,2.986,0,0,0-5.179,2.889Z" transform="translate(-675.847 -236.873)" fill="#9f616a"/>
      <path id="Caminho_4827" data-name="Caminho 4827" d="M687.916,122.074l-3.073-2.171-3.485,4.027,4.054,2.4Z" transform="translate(-576.598 -95.242)" fill="#6c63ff"/>
      <path id="Caminho_4828" data-name="Caminho 4828" d="M813.512,267.294l10.356,3.985,9.969-6.528a5.07,5.07,0,0,1,6.548,7.632l-.089.1-15.332,8.22-16.748-7.651Z" transform="translate(-703.023 -241.934)" fill="#fff"/>
      <path id="Caminho_4829" data-name="Caminho 4829" d="M279.668,288.4H171.76l3.913-76.4h16.886l15.571,10.914h75.45Z" transform="translate(-171.554 -168.484)" fill="#e5e5e5"/>
      <path id="Caminho_4830" data-name="Caminho 4830" d="M448.869,256.607,386.5,230.922a.891.891,0,0,1-.484-1.162l28.261-68.623a.891.891,0,0,1,1.162-.484l62.369,25.685a.891.891,0,0,1,.484,1.162L450.03,256.123a.891.891,0,0,1-1.162.484Z" transform="translate(-367.17 -159.848)" fill="#fff"/>
      <path id="Caminho_4831" data-name="Caminho 4831" d="M448.869,256.607,386.5,230.922a.891.891,0,0,1-.484-1.162l28.261-68.623a.891.891,0,0,1,1.162-.484l62.369,25.685a.891.891,0,0,1,.484,1.162L450.03,256.123a.891.891,0,0,1-1.162.484ZM415.3,160.983a.535.535,0,0,0-.7.29L386.345,229.9a.535.535,0,0,0,.29.7L449,256.278a.535.535,0,0,0,.7-.29l28.261-68.623a.535.535,0,0,0-.29-.7Z" transform="translate(-367.17 -159.848)" fill="#3f3d56"/>
      <path id="Caminho_4832" data-name="Caminho 4832" d="M552.259,235.05l-15.469-6.371a.891.891,0,0,1-.484-1.162l6.37-15.469a.891.891,0,0,1,1.162-.484l15.469,6.37a.891.891,0,0,1,.484,1.162l-6.37,15.469A.891.891,0,0,1,552.259,235.05ZM543.7,211.894a.534.534,0,0,0-.7.29l-6.37,15.469a.534.534,0,0,0,.29.7l15.469,6.371a.534.534,0,0,0,.7-.29l6.371-15.469a.535.535,0,0,0-.29-.7Z" transform="translate(-486.718 -200.275)" fill="#f2f2f2"/>
      <path id="Caminho_4833" data-name="Caminho 4833" d="M527.111,236.015l-15.469-6.37a.8.8,0,0,1-.436-1.046l6.37-15.469a.8.8,0,0,1,1.046-.436l15.469,6.37a.8.8,0,0,1,.436,1.046l-6.37,15.469A.8.8,0,0,1,527.111,236.015Z" transform="translate(-466.771 -201.178)" fill="#ccc"/>
      <path id="Caminho_4834" data-name="Caminho 4834" d="M544.883,345.975,496.5,326.051a.8.8,0,0,1,.61-1.481l48.381,19.925a.8.8,0,0,1-.61,1.481Z" transform="translate(-454.78 -290.063)" fill="#ccc"/>
      <path id="Caminho_4835" data-name="Caminho 4835" d="M523,365.936l-36.7-15.113a.8.8,0,1,1,.61-1.481l36.7,15.113a.8.8,0,1,1-.61,1.481Z" transform="translate(-446.647 -309.738)" fill="#ccc"/>
      <path id="Caminho_4836" data-name="Caminho 4836" d="M685.668,297.4l-21.393-8.81a.8.8,0,0,1,.61-1.481l21.393,8.81a.8.8,0,1,1-.61,1.481Z" transform="translate(-588.102 -260.305)" fill="#ccc"/>
      <path id="Caminho_4837" data-name="Caminho 4837" d="M670.127,319.978l-16.054-6.612a.8.8,0,0,1,.61-1.481l16.054,6.612a.8.8,0,0,1-.61,1.481Z" transform="translate(-579.98 -279.982)" fill="#ccc"/>
      <path id="Caminho_4838" data-name="Caminho 4838" d="M524.479,395.52,476.1,375.6a.8.8,0,0,1,.61-1.481l48.381,19.925a.8.8,0,1,1-.61,1.481Z" transform="translate(-438.555 -329.42)" fill="#ccc"/>
      <path id="Caminho_4839" data-name="Caminho 4839" d="M502.593,415.481l-36.7-15.113a.8.8,0,0,1,.61-1.481L503.2,414a.8.8,0,0,1-.61,1.481Z" transform="translate(-430.425 -349.095)" fill="#ccc"/>
      <path id="Caminho_4840" data-name="Caminho 4840" d="M504.075,445.065l-48.381-19.925a.8.8,0,1,1,.61-1.481l48.381,19.925a.8.8,0,1,1-.61,1.481Z" transform="translate(-422.331 -368.776)" fill="#ccc"/>
      <path id="Caminho_4841" data-name="Caminho 4841" d="M493.873,469.838l-48.381-19.925a.8.8,0,0,1,.61-1.481l48.381,19.925a.8.8,0,1,1-.61,1.481Z" transform="translate(-414.219 -388.455)" fill="#ccc"/>
      <path id="Caminho_4842" data-name="Caminho 4842" d="M566.485,533.5a17.445,17.445,0,0,0,2.9-.089,6.275,6.275,0,0,0,2.531-.7,2.406,2.406,0,0,0,1.2-1.82,1.693,1.693,0,0,0-1.024-1.717,2.02,2.02,0,0,0-2.049.287,2.669,2.669,0,0,0-.916,2.132,4.911,4.911,0,0,0,2.792,3.962,2.989,2.989,0,0,0,4.276-1.786c.087-.4-.452-.533-.677-.279a1.8,1.8,0,0,0,2.507,2.564l-.606-.25a4.323,4.323,0,0,0,2.973,3.14,4,4,0,0,0,1.106.169,4.724,4.724,0,0,1,1.359.372L586,540.507c.462.15.755-.551.289-.7l-2.843-.926c-.474-.154-.946-.313-1.422-.463a8.413,8.413,0,0,0-1.066-.112,3.56,3.56,0,0,1-2.784-2.6.384.384,0,0,0-.606-.25,1.04,1.04,0,1,1-1.446-1.494l-.677-.279a2.185,2.185,0,0,1-2.845,1.332,4.31,4.31,0,0,1-2.6-2.76,2.227,2.227,0,0,1,.162-1.771,1.327,1.327,0,0,1,1.39-.681.952.952,0,0,1,.813,1.044,1.7,1.7,0,0,1-.948,1.29,6.156,6.156,0,0,1-2.246.538,16.233,16.233,0,0,1-2.589.074c-.485-.024-.582.729-.092.754Z" transform="translate(-510.5 -452.506)" fill="#6c63ff"/>
      <path id="Caminho_4843" data-name="Caminho 4843" d="M279.668,247.914v60.338H171.76V237h16.886l15.57,10.914Z" transform="translate(-171.554 -188.335)" fill="#f1f5f8"/>
      <rect id="Ret창ngulo_367" data-name="Ret창ngulo 367" width="28.344" height="3.501" transform="translate(6.796 108.591)" fill="rgba(107,107,109,0.35)"/>
      <rect id="Ret창ngulo_368" data-name="Ret창ngulo 368" width="17.745" height="3.501" transform="translate(6.796 101.795)" fill="rgba(107,107,109,0.35)"/>
      <path id="Caminho_4844" data-name="Caminho 4844" d="M403.079,464.664H294.76V393h17.157l15.571,10.914h75.591Zm-107.908-.412h107.5V404.326H327.358l-15.571-10.914H295.172Z" transform="translate(-294.76 -344.541)" fill="#3f3d56"/>
      <path id="Caminho_4845" data-name="Caminho 4845" d="M868.957,494.33l-3.651,1.3-6.771-13.462,5.389-1.926Z" transform="translate(-717.445 -381.49)" fill="#9f616a"/>
      <path id="Caminho_4846" data-name="Caminho 4846" d="M985.393,707.169l-.053-.149c-.9-2.531,2.574-4.341,3.566-5.016l6.57-3.774,1.691,4.732Z" transform="translate(-843.459 -586.915)" fill="#2f2e41"/>
      <path id="Caminho_4847" data-name="Caminho 4847" d="M771.784,508.5h-3.878l-1.844-14.956h5.723Z" transform="translate(-643.92 -392.051)" fill="#9f616a"/>
      <path id="Caminho_4848" data-name="Caminho 4848" d="M874.439,722.049h-12.5v-.158c-.127-1.466,2.82-2.868,4.234-3.11l8.269-1.756Z" transform="translate(-745.585 -601.839)" fill="#2f2e41"/>
      <path id="Caminho_4849" data-name="Caminho 4849" d="M927.831,246.338l-1.686-3.332s-6.282,1.574-6.853,5.215Z" transform="translate(-791.226 -225.294)" fill="#6c63ff"/>
      <path id="Caminho_4850" data-name="Caminho 4850" d="M777.552,284.759l-4.586,25.591,12.177,21.534-7.274,2.846-12.335-20.874-1.581-5.693L763,337.893l-6.56-.2-3.008-27.76,4.824-25.807Z" transform="translate(-633.989 -225.758)" fill="#0b2e4e"/>
      <path id="Caminho_4851" data-name="Caminho 4851" d="M907.015,285l-.159-18.66a23.851,23.851,0,0,0-4.766-14.277,3.335,3.335,0,0,0-1.455-2.224,3.575,3.575,0,0,0-3.174.2l-5.119,2.386-.024.087c-.054.2-5.22,21.277-6.517,26.567-.185.759-.291,1.193-.291,1.193s.02,1.223.056,3.125c.115,6.54.385,21.109.494,21.721,0,0,9.456,1.782,13.2,1.782a34.532,34.532,0,0,0,11.11-1.63l.155-.04Z" transform="translate(-764.401 -230.515)" fill="#fff"/>
      <circle id="Elipse_168" data-name="Elipse 168" cx="6.921" cy="6.921" r="6.921" transform="translate(120.29 6.988) rotate(-28.663)" fill="#9f616a"/>
      <path id="Caminho_4852" data-name="Caminho 4852" d="M894.849,366.517l-9.283,1.887c-.036-1.53-.056-2.513-.056-2.513s.106-.349.291-.96Z" transform="translate(-764.313 -322.164)" opacity="0.2"/>
      <path id="Caminho_4853" data-name="Caminho 4853" d="M793.292,342.722a2.97,2.97,0,0,0,4.492-.748l10.348,2.079-2.059-5.084-9.511-1.195a2.986,2.986,0,0,0-3.271,4.947Z" transform="translate(-690.193 -300.34)" fill="#9f616a"/>
      <path id="Caminho_4854" data-name="Caminho 4854" d="M713.721,184.335l-3.727-.515L708.751,189l4.705.269Z" transform="translate(-598.366 -146.012)" fill="#6c63ff"/>
      <path id="Caminho_4855" data-name="Caminho 4855" d="M842.768,283.774l11.028-1.223,5.851-10.381a5.07,5.07,0,0,1,9.324,3.766l-.034.129-9.835,14.35-18.39.907Z" transform="translate(-728.828 -246.436)" fill="#fff"/>
      <path id="Caminho_4856" data-name="Caminho 4856" d="M903.514,172.75l-5.745.206c-.35.013-1.3-3.766-1.425-4.55a2.14,2.14,0,0,0-2.232-1.731c-.43.041-1.514-.763-2.633-1.714a4.219,4.219,0,0,1,.32-6.724q.1-.063.188-.114A10.222,10.222,0,0,1,896.868,157a9.127,9.127,0,0,1,4.449.9c2.415,1.3,3.7,4.133,3.813,6.873a19.99,19.99,0,0,1-1.762,7.972" transform="translate(-767.937 -157)" fill="#2f2e41"/>
    </g>
    <path id="Caminho_4858" data-name="Caminho 4858" d="M2681.823,6781.125s-2.631,2.562,2.908,6.121,4.846,6.406,5.4,9.68,3.047,8.826,8.308,7.687,5.816-7.544,5.124-10.676-1.938-8.4-5.124-11.53-4.431-2.419-6.647-5.979-3.6-7.687-7.062-7.829S2681.823,6781.125,2681.823,6781.125Z" transform="translate(-2093.865 -6581.857)" fill="#2f2e41"/>
  </g>
</svg>
