<svg xmlns="http://www.w3.org/2000/svg" xmlns:xlink="http://www.w3.org/1999/xlink" width="320" height="108.896" viewBox="0 0 320 108.896">
  <defs>
    <clipPath id="clip-path">
      <rect id="Retângulo_372" data-name="Retângulo 372" width="320" height="108.896" fill="none"/>
    </clipPath>
  </defs>
  <g id="Grupo_992" data-name="Grupo 992" transform="translate(-352 -324)">
    <g id="Grupo_914" data-name="Grupo 914" transform="translate(352 324)">
      <g id="Grupo_909" data-name="Grupo 909" clip-path="url(#clip-path)">
        <path id="Caminho_4888" data-name="Caminho 4888" d="M6.124,0a6.175,6.175,0,0,1,.015,12.349A6.175,6.175,0,0,1,6.124,0Z" transform="translate(180.472 54.313) rotate(-80.783)" fill="#fff"/>
        <path id="Caminho_4889" data-name="Caminho 4889" d="M6.124,0a6.175,6.175,0,0,1,.015,12.349A6.175,6.175,0,0,1,6.124,0Z" transform="translate(1051.481 54.313) rotate(-80.783)" fill="#fff"/>
        <path id="Exclusão_1" data-name="Exclusão 1" d="M857.44-12313.105a26.262,26.262,0,0,1-9.223-1.621,37.887,37.887,0,0,1-10.888-6.522c-3.151-2.571-5.434-3.783-11.419-4.632a50.721,50.721,0,0,1-17.973-5.978,41.229,41.229,0,0,1-12.415-10.869,45.132,45.132,0,0,1-7.2-14.3,56.062,56.062,0,0,1-2.324-16.266,47.78,47.78,0,0,1,4.492-20.673,45.659,45.659,0,0,1,11.839-15.293,52.7,52.7,0,0,1,16.729-9.486,57.749,57.749,0,0,1,19.164-3.256c22.509,0,32.274,11.513,39.4,19.919,4.065,4.793,7.276,8.578,11.5,8.578,4.087,0,7.049-2.511,10.479-5.418a42.65,42.65,0,0,1,8.412-5.967,28.33,28.33,0,0,1,13.07-2.928,28.575,28.575,0,0,1,12.77,2.922,29.655,29.655,0,0,1,9.678,7.721,35.26,35.26,0,0,1,6.136,10.951,38.079,38.079,0,0,1,2.145,12.611,37.837,37.837,0,0,1-2.221,12.806,35.073,35.073,0,0,1-6.256,10.926,29.926,29.926,0,0,1-9.682,7.608,28.2,28.2,0,0,1-12.5,2.856h-.071c-8.689,0-12.426-2.473-16.382-5.091l-.6-.4c-2.076-1.367-5.145-3.185-7.82-3.185-2.93,0-4.855,2.214-5.723,6.58C886.777-12322.661,875.634-12313.105,857.44-12313.105Zm-18.435-104.84c-17.03,0-42.229,13.768-42.232,43.31,0,20.08,11.477,32.565,21.105,39.5,11.5,8.284,25,12.128,33.289,12.262.363.006.73.009,1.092.009,16.989,0,28.575-6.733,35.42-20.584a22.025,22.025,0,0,1,5.572-7.626,8.831,8.831,0,0,1,5.68-2.084,14.675,14.675,0,0,1,6.038,1.563l.315.143.005,0c3.22,1.453,6.87,3.1,12.028,3.1,17.136,0,24.844-15.572,24.844-26.63,0-18.39-14.579-26.661-24.931-26.661-9.957,0-14.521,3.785-18.548,7.125-3,2.489-5.59,4.639-9.815,4.64-.278,0-.572-.01-.876-.03a11.46,11.46,0,0,1-6.772-2.984,50.987,50.987,0,0,1-5.957-6.455c-6.675-8.063-14.981-18.1-35.442-18.594C839.519-12417.942,839.26-12417.945,839.006-12417.945Z" transform="translate(-786 12422)" fill="#fff" stroke="rgba(0,0,0,0)" stroke-miterlimit="10" stroke-width="1"/>
        <path id="Caminho_4882" data-name="Caminho 4882" d="M52.224,0c35.389,0,39.308,28.5,50.9,28.5,9.772,0,13.07-14.311,31.961-14.311s30.729,16.98,30.729,34.2c0,17.713-12.417,34.241-30.729,34.2-9.128,0-12.8-2.738-16.981-5.489-5.095-3.352-11.621-6.266-13.541,3.4-3.156,15.714-12.145,28.4-33.122,28.4-5.745,0-12.145-1.611-20.112-8.145-3.074-2.509-5.265-3.759-11.42-4.63C12.088,92.06,0,71.058,0,48.709,0,17.744,26.14,0,52.224,0" transform="translate(871.009)" fill="#fff"/>
        <path id="Caminho_4883" data-name="Caminho 4883" d="M57.966,5.669c33.267.8,34.65,27.124,48.172,28.032,10.674.72,11.293-11.735,29.24-11.735,11.155,0,24.929,9.041,24.929,26.663,0,11.5-7.828,26.629-24.841,26.629-5.328,0-9-1.735-12.348-3.245-5.726-2.594-11.691-3.19-17.29,8.145C98.34,95.3,85.679,101,69.315,100.734c-16.248-.263-54.4-15.181-54.4-51.766,0-28.863,24.476-43.744,43.047-43.3" transform="translate(866.864 -1.603)" fill="#1f9cda"/>
        <path id="Caminho_4872" data-name="Caminho 4872" d="M42.054,55.394H58.043a2.734,2.734,0,0,0,.433,0h1.589c1.761,0,2.772-.921,2.772-2.509,0-2.757-1.938-3.045-2.772-3.045H40.311c-5.77,0-9.866,1.253-12.183,3.678a5.774,5.774,0,0,0-1.685,4.029V71.194c0,2.724,1.679,4.774,4.983,6.122a23.509,23.509,0,0,0,8.377,1.46H59.864c.833,0,2.8-.307,2.8-3.07,0-1.6-1.023-2.509-2.8-2.509H40.072c-2.9,0-6.363-.37-6.363-2.168V67.269H59.887a2.666,2.666,0,0,0,2.925-2.375,2.605,2.605,0,0,0,0-.551c0-1.692-1.067-2.669-2.9-2.669H33.664V57.633c0-1.441,2.986-2.218,8.39-2.218m66.44-5.439a4.979,4.979,0,0,0-3.832,1.585l-.057.062L89.961,71.475,75.537,51.644l-.072-.072a5.154,5.154,0,0,0-3.92-1.566c-2.527,0-3.958,1.165-3.958,3.277v23a2.271,2.271,0,0,0,1.8,2.35,10.882,10.882,0,0,0,2.664.169c1.78,0,2.8-.915,2.8-2.509V61.106c2.355,3.521,10.732,16,10.732,16l.072.094a6.061,6.061,0,0,0,8.44,0l.057-.082,11.11-16.009V76.229c0,1.6,1.016,2.509,2.8,2.509a11.778,11.778,0,0,0,2.652-.163,2.3,2.3,0,0,0,1.818-2.356V53.458c0-2.262-1.439-3.5-4.04-3.5m39.845,12.619a24.507,24.507,0,0,0-8.837-1.3h-7.481l-3.033-.05c-.688-.032-1.218-.072-1.6-.119-1.976-.072-3.548-1.2-3.548-2.587a2.188,2.188,0,0,1,.89-1.679c.884-.932,3.668-1.433,8.042-1.433,15.977,0,17.517-.072,17.808-.169l-.088.044a2.3,2.3,0,0,0,1.768-2.365c0-2.738-1.957-3.026-2.8-3.026-3.863,0-23.59.182-25.743.664-4.368,1.134-6.571,3.5-6.571,7.055v2.068a5.629,5.629,0,0,0,2.708,4.85,12.092,12.092,0,0,0,5.618,1.924l3,.169,1.893.072,9.343.269a22.7,22.7,0,0,1,4.722.551,4.17,4.17,0,0,1,1.036.338,2.615,2.615,0,0,1,.631.388,2.505,2.505,0,0,1,1.092,1.955c0,1.541-1.724,2.8-3.851,2.8-.057,0-2.418.2-3.87.2H120.008a2.587,2.587,0,0,0-2.361,1.021,3.819,3.819,0,0,0-.41,2.055c0,1.6,1,2.509,2.772,2.509h19.449c7.462,0,11.843-1.218,13.414-3.727a6.976,6.976,0,0,0,.89-3.81v-2.45c0-2.807-1.824-4.9-5.422-6.216" transform="translate(-7.348 -14.118)" fill="#fff"/>
        <path id="Caminho_4884" data-name="Caminho 4884" d="M42.054,55.394H58.043a2.734,2.734,0,0,0,.433,0h1.589c1.761,0,2.772-.921,2.772-2.509,0-2.757-1.938-3.045-2.772-3.045H40.311c-5.77,0-9.866,1.253-12.183,3.678a5.774,5.774,0,0,0-1.685,4.029V71.194c0,2.724,1.679,4.774,4.983,6.122a23.509,23.509,0,0,0,8.377,1.46H59.864c.833,0,2.8-.307,2.8-3.07,0-1.6-1.023-2.509-2.8-2.509H40.072c-2.9,0-6.363-.37-6.363-2.168V67.269H59.887a2.666,2.666,0,0,0,2.925-2.375,2.605,2.605,0,0,0,0-.551c0-1.692-1.067-2.669-2.9-2.669H33.664V57.633c0-1.441,2.986-2.218,8.39-2.218m66.44-5.439a4.979,4.979,0,0,0-3.832,1.585l-.057.062L89.961,71.475,75.537,51.644l-.072-.072a5.154,5.154,0,0,0-3.92-1.566c-2.527,0-3.958,1.165-3.958,3.277v23a2.271,2.271,0,0,0,1.8,2.35,10.882,10.882,0,0,0,2.664.169c1.78,0,2.8-.915,2.8-2.509V61.106c2.355,3.521,10.732,16,10.732,16l.072.094a6.061,6.061,0,0,0,8.44,0l.057-.082,11.11-16.009V76.229c0,1.6,1.016,2.509,2.8,2.509a11.778,11.778,0,0,0,2.652-.163,2.3,2.3,0,0,0,1.818-2.356V53.458c0-2.262-1.439-3.5-4.04-3.5m39.845,12.619a24.507,24.507,0,0,0-8.837-1.3h-7.481l-3.033-.05c-.688-.032-1.218-.072-1.6-.119-1.976-.072-3.548-1.2-3.548-2.587a2.188,2.188,0,0,1,.89-1.679c.884-.932,3.668-1.433,8.042-1.433,15.977,0,17.517-.072,17.808-.169l-.088.044a2.3,2.3,0,0,0,1.768-2.365c0-2.738-1.957-3.026-2.8-3.026-3.863,0-23.59.182-25.743.664-4.368,1.134-6.571,3.5-6.571,7.055v2.068a5.629,5.629,0,0,0,2.708,4.85,12.092,12.092,0,0,0,5.618,1.924l3,.169,1.893.072,9.343.269a22.7,22.7,0,0,1,4.722.551,4.17,4.17,0,0,1,1.036.338,2.615,2.615,0,0,1,.631.388,2.505,2.505,0,0,1,1.092,1.955c0,1.541-1.724,2.8-3.851,2.8-.057,0-2.418.2-3.87.2H120.008a2.587,2.587,0,0,0-2.361,1.021,3.819,3.819,0,0,0-.41,2.055c0,1.6,1,2.509,2.772,2.509h19.449c7.462,0,11.843-1.218,13.414-3.727a6.976,6.976,0,0,0,.89-3.81v-2.45c0-2.807-1.824-4.9-5.422-6.216" transform="translate(863.661 -14.118)" fill="#fff"/>
        <path id="Caminho_4873" data-name="Caminho 4873" d="M283.423,40.382h9.1l10.318,25.374,10.318-25.374h9.1L306.924,76.1h-8.157Z" transform="translate(-78.756 -11.438)" fill="#fff"/>
        <path id="Caminho_4885" data-name="Caminho 4885" d="M283.423,40.382h9.1l10.318,25.374,10.318-25.374h9.1L306.924,76.1h-8.157Z" transform="translate(792.253 -11.438)" fill="#fff"/>
        <path id="Caminho_4874" data-name="Caminho 4874" d="M429.823,66.668c-2.841,6.94-8.377,10.409-16.68,10.409-5.753,0-10.123-1.807-13.255-5.349s-4.661-8.025-4.661-13.446,1.529-10.621,4.661-14.163,7.5-5.35,13.255-5.35c8.3,0,13.839,3.47,16.68,10.41l-8.085,3.253c-1.966-3.977-4.879-6-8.595-6-5.535,0-8.448,5.2-8.448,11.849s2.913,11.133,8.448,11.133c3.715,0,6.628-2.025,8.595-6Z" transform="translate(-109.823 -10.981)" fill="#fff"/>
        <path id="Caminho_4886" data-name="Caminho 4886" d="M429.823,66.668c-2.841,6.94-8.377,10.409-16.68,10.409-5.753,0-10.123-1.807-13.255-5.349s-4.661-8.025-4.661-13.446,1.529-10.621,4.661-14.163,7.5-5.35,13.255-5.35c8.3,0,13.839,3.47,16.68,10.41l-8.085,3.253c-1.966-3.977-4.879-6-8.595-6-5.535,0-8.448,5.2-8.448,11.849s2.913,11.133,8.448,11.133c3.715,0,6.628-2.025,8.595-6Z" transform="translate(761.186 -10.981)" fill="#fff"/>
        <path id="Caminho_4875" data-name="Caminho 4875" d="M375.044,67.194a20.385,20.385,0,0,0,.6-3.677c.051-.631.072-1.283.072-1.95V41.126h-8.889V63.008c-.361,4.394-2.549,6.53-6.68,6.53V69.6h-.007v-.067c-4.131,0-6.319-2.136-6.68-6.53V41.126H344.57V61.568c0,.667.022,1.319.072,1.95a20.388,20.388,0,0,0,.6,3.677c1.769,6.773,6.983,10.551,14.9,10.551v-.331h.007v.331c7.914,0,13.128-3.777,14.9-10.551" transform="translate(-95.747 -11.649)" fill="#fff"/>
        <path id="Caminho_4887" data-name="Caminho 4887" d="M375.044,67.194a20.385,20.385,0,0,0,.6-3.677c.051-.631.072-1.283.072-1.95V41.126h-8.889V63.008c-.361,4.394-2.549,6.53-6.68,6.53V69.6h-.007v-.067c-4.131,0-6.319-2.136-6.68-6.53V41.126H344.57V61.568c0,.667.022,1.319.072,1.95a20.388,20.388,0,0,0,.6,3.677c1.769,6.773,6.983,10.551,14.9,10.551v-.331h.007v.331c7.914,0,13.128-3.777,14.9-10.551" transform="translate(775.262 -11.649)" fill="#fff"/>
        <rect id="Retângulo_374" data-name="Retângulo 374" width="320" height="108.896" transform="translate(871.009)" fill="none"/>
      </g>
    </g>
  </g>
</svg>
